Coordinates
version=1
nRows=8
nColumns=40
inDegrees=yes

Units are S.I. units (second, meters, Newtons, ...)
Angles are in degrees.

endheader
time	pelvis_tilt	pelvis_list	pelvis_rotation	pelvis_tx	pelvis_ty	pelvis_tz	hip_flexion_r	hip_adduction_r	hip_rotation_r	knee_angle_r	knee_angle_r_beta	ankle_angle_r	subtalar_angle_r	mtp_angle_r	hip_flexion_l	hip_adduction_l	hip_rotation_l	knee_angle_l	knee_angle_l_beta	ankle_angle_l	subtalar_angle_l	mtp_angle_l	lumbar_extension	lumbar_bending	lumbar_rotation	arm_flex_r	arm_add_r	arm_rot_r	elbow_flex_r	pro_sup_r	wrist_flex_r	wrist_dev_r	arm_flex_l	arm_add_l	arm_rot_l	elbow_flex_l	pro_sup_l	wrist_flex_l	wrist_dev_l
     14.86642857	     -1.94394098	     -3.28747439	      4.67249827	      0.76765327	      0.93605639	      0.49583702	      7.11042533	      2.90913880	    -19.76268703	     12.73086389	     12.73086389	     10.58399952	      5.09365820	     -7.15707456	     27.13868013	    -10.97199140	     -5.80928456	     24.04649248	     24.04649248	     12.50616957	    -11.17911505	     11.26788494	    -10.02537664	      9.46430419	      2.73905560	     30.82208194	    -16.57754904	     -9.22631910	     55.37923114	     45.73646757	      0.00000000	      0.00000000	     -5.55717840	     -7.74702838	     -3.10874525	     34.67155121	     46.13577638	      0.00000000	      0.00000000
     14.88035714	     -2.12592614	     -3.26597310	      4.77216907	      0.76642546	      0.93582873	      0.49597125	      6.71398849	      2.95630600	    -19.99651709	     12.39759915	     12.39759915	     10.87283988	      5.54203301	     -7.19767303	     27.57979519	    -10.56923716	     -5.58607905	     21.62062630	     21.62062630	     12.01565442	     -9.60277910	     10.87592575	     -9.91442255	      9.47193389	      3.37724636	     30.95649288	    -17.37247832	     -8.51854055	     59.72804663	     45.54833795	      0.00000000	      0.00000000	     -5.63242395	     -7.58680110	     -2.48291258	     32.26869958	     46.03574163	      0.00000000	      0.00000000
     14.89428571	     -2.27030823	     -3.22126169	      4.86695693	      0.76521048	      0.93566881	      0.49605537	      6.27651074	      3.00559721	    -20.04875677	     12.05105744	     12.05105744	     11.11505287	      5.69442749	     -7.20073296	     27.99526980	    -10.13906523	     -5.37652511	     19.57574560	     19.57574560	     11.67556439	     -8.11270281	     11.10115642	     -9.83378152	      9.40187621	      3.14425520	     32.42435475	    -16.94130037	     -8.47011809	     61.54090478	     45.48967488	      0.00000000	      0.00000000	     -6.63029822	     -7.55696918	     -2.25775600	     31.38403148	     45.98596431	      0.00000000	      0.00000000
     14.90821429	     -2.40641734	     -3.28361910	      4.95347429	      0.76415282	      0.93539653	      0.49615023	      5.76583369	      3.16232027	    -20.34698420	     11.59907828	     11.59907828	     11.37519802	      6.31460267	     -7.15700226	     28.51986614	     -9.87718390	     -5.29388919	     18.06555431	     18.06555431	     11.14545798	     -6.63075222	     10.62560945	     -9.79566457	      9.47904793	      3.39974161	     32.86213777	    -17.22039674	     -7.97557281	     65.70587933	     45.33373912	      0.00000000	      0.00000000	     -7.06743453	     -7.50156379	     -1.50522247	     29.83785998	     45.86370110	      0.00000000	      0.00000000
     14.92214286	     -2.56338668	     -3.26295917	      4.99237922	      0.76310602	      0.93515327	      0.49623575	      5.33573852	      3.23510140	    -20.36764986	     11.25504252	     11.25504252	     11.61686392	      6.49499896	     -7.14008227	     28.95229586	     -9.51458779	     -5.21161355	     16.76112793	     16.76112793	     10.67181144	     -5.54852536	     10.78335474	     -9.71308311	      9.41605156	      3.17138598	     34.18289025	    -16.69600137	     -7.88274267	     67.48308807	     45.27701765	      0.00000000	      0.00000000	     -7.98555352	     -7.48313249	     -1.28170836	     29.13005129	     45.81499341	      0.00000000	      0.00000000
     14.93607143	     -2.66586140	     -3.33044971	      5.01183567	      0.76233144	      0.93480157	      0.49629247	      4.79702125	      3.39769386	    -20.57646481	     10.85232628	     10.85232628	     11.90839469	      7.09638423	     -6.97475630	     29.41686807	     -9.30455166	     -5.26885020	     16.01241333	     16.01241333	     10.02818128	     -4.53876583	     10.05394724	     -9.69782482	      9.43270315	      3.43961916	     34.55507006	    -16.91808682	     -7.33724108	     71.52061473	     45.13545513	      0.00000000	      0.00000000	     -8.55581196	     -7.50444652	     -0.50086316	     28.31930480	     45.68368794	      0.00000000	      0.00000000
     14.95000000	     -2.77962253	     -3.33099232	      4.98959474	      0.76162375	      0.93443753	      0.49627835	      4.32596345	      3.47985680	    -20.55332894	     10.56020336	     10.56020336	     12.17297202	      7.32619779	     -6.90502882	     29.76955153	     -9.01504498	     -5.28413484	     15.47466143	     15.47466143	      9.51623081	     -3.94673551	      9.99534654	     -9.64141707	      9.35354026	      3.20010291	     35.71962565	    -16.31887031	     -7.16118774	     73.53821771	     45.07142937	      0.00000000	      0.00000000	     -9.44167437	     -7.50008256	     -0.19793479	     27.77308772	     45.62176084	      0.00000000	      0.00000000
     14.96392857	     -2.85355414	     -3.39043633	      4.93116791	      0.76107305	      0.93400568	      0.49624761	      3.82499912	      3.61158302	    -20.57600205	     10.31097087	     10.31097087	     12.48338944	      7.69597533	     -6.80178410	     30.07148914	     -8.82889075	     -5.35698805	     15.33174319	     15.33174319	      8.99528393	     -3.52906685	      9.76437583	     -9.61645797	      9.35080200	      2.98524204	     36.61095303	    -15.82046856	     -6.75312092	     75.99881766	     44.98512749	      0.00000000	      0.00000000	    -10.34441239	     -7.51878218	      0.10019726	     27.39255132	     45.55934807	      0.00000000	      0.00000000
